<mxfile host="app.diagrams.net" agent="Mozilla/5.0 (Windows NT 10.0; Win64; x64) AppleWebKit/537.36 (KHTML, like Gecko) Chrome/139.0.0.0 Safari/537.36" version="28.1.1">
  <diagram name="Page-1" id="QFs1zZ1Uj0OUlqwMwo2m">
    <mxGraphModel dx="1042" dy="510" grid="1" gridSize="10" guides="1" tooltips="1" connect="1" arrows="1" fold="1" page="1" pageScale="1" pageWidth="850" pageHeight="1100" math="0" shadow="0">
      <root>
        <mxCell id="0" />
        <mxCell id="1" parent="0" />
        <mxCell id="lnr_KaeMSOWa1ANDZoDC-1" value="Start" style="ellipse;whiteSpace=wrap;html=1;fillColor=#647687;fontColor=#ffffff;strokeColor=#314354;" vertex="1" parent="1">
          <mxGeometry x="90" y="40" width="180" height="80" as="geometry" />
        </mxCell>
        <mxCell id="lnr_KaeMSOWa1ANDZoDC-2" value="New User?&lt;div&gt;run create_dataset py&lt;/div&gt;" style="rhombus;whiteSpace=wrap;html=1;fillColor=light-dark(#A20025,#FFD966);fontColor=#ffffff;strokeColor=#6F0000;" vertex="1" parent="1">
          <mxGeometry x="102.5" y="210" width="155" height="130" as="geometry" />
        </mxCell>
        <mxCell id="lnr_KaeMSOWa1ANDZoDC-3" value="Face Recognized" style="rhombus;whiteSpace=wrap;html=1;fillColor=light-dark(#B0E3E6,#9AC7BF);strokeColor=#0e8088;" vertex="1" parent="1">
          <mxGeometry x="105" y="580" width="150" height="130" as="geometry" />
        </mxCell>
        <mxCell id="lnr_KaeMSOWa1ANDZoDC-5" value="" style="endArrow=classic;html=1;rounded=0;entryX=0.5;entryY=0;entryDx=0;entryDy=0;exitX=0.5;exitY=1;exitDx=0;exitDy=0;" edge="1" parent="1" source="lnr_KaeMSOWa1ANDZoDC-1" target="lnr_KaeMSOWa1ANDZoDC-2">
          <mxGeometry width="50" height="50" relative="1" as="geometry">
            <mxPoint x="180" y="160" as="sourcePoint" />
            <mxPoint x="230" y="110" as="targetPoint" />
          </mxGeometry>
        </mxCell>
        <mxCell id="lnr_KaeMSOWa1ANDZoDC-6" value="" style="endArrow=classic;html=1;rounded=0;exitX=0.5;exitY=1;exitDx=0;exitDy=0;" edge="1" parent="1" source="lnr_KaeMSOWa1ANDZoDC-2">
          <mxGeometry width="50" height="50" relative="1" as="geometry">
            <mxPoint x="173.75" y="350" as="sourcePoint" />
            <mxPoint x="180" y="410" as="targetPoint" />
          </mxGeometry>
        </mxCell>
        <mxCell id="lnr_KaeMSOWa1ANDZoDC-7" value="" style="endArrow=none;html=1;rounded=0;" edge="1" parent="1">
          <mxGeometry width="50" height="50" relative="1" as="geometry">
            <mxPoint x="257.5" y="274.5" as="sourcePoint" />
            <mxPoint x="390" y="275" as="targetPoint" />
          </mxGeometry>
        </mxCell>
        <mxCell id="lnr_KaeMSOWa1ANDZoDC-9" value="Give your photograph" style="rounded=0;whiteSpace=wrap;html=1;fillColor=light-dark(#B0E3E6,#66B2FF);strokeColor=#0e8088;" vertex="1" parent="1">
          <mxGeometry x="390" y="250" width="180" height="50" as="geometry" />
        </mxCell>
        <mxCell id="lnr_KaeMSOWa1ANDZoDC-10" value="" style="endArrow=none;html=1;rounded=0;" edge="1" parent="1">
          <mxGeometry width="50" height="50" relative="1" as="geometry">
            <mxPoint x="479.5" y="300" as="sourcePoint" />
            <mxPoint x="480" y="430" as="targetPoint" />
          </mxGeometry>
        </mxCell>
        <mxCell id="lnr_KaeMSOWa1ANDZoDC-11" value="Recognise the face&lt;div&gt;run face_recognize.py&lt;/div&gt;" style="shape=parallelogram;perimeter=parallelogramPerimeter;whiteSpace=wrap;html=1;fixedSize=1;fillColor=light-dark(#E3C800,#CDA2BE);fontColor=#000000;strokeColor=#B09500;" vertex="1" parent="1">
          <mxGeometry x="80" y="410" width="200" height="90" as="geometry" />
        </mxCell>
        <mxCell id="lnr_KaeMSOWa1ANDZoDC-12" value="Store the face data in folder on your name" style="rounded=0;whiteSpace=wrap;html=1;fillColor=light-dark(#008A00,#80FF00);strokeColor=#005700;fontColor=#ffffff;" vertex="1" parent="1">
          <mxGeometry x="390" y="425" width="180" height="60" as="geometry" />
        </mxCell>
        <mxCell id="lnr_KaeMSOWa1ANDZoDC-14" value="" style="endArrow=classic;html=1;rounded=0;exitX=0.5;exitY=1;exitDx=0;exitDy=0;" edge="1" parent="1" source="lnr_KaeMSOWa1ANDZoDC-11">
          <mxGeometry width="50" height="50" relative="1" as="geometry">
            <mxPoint x="179.5" y="520" as="sourcePoint" />
            <mxPoint x="179.5" y="580" as="targetPoint" />
          </mxGeometry>
        </mxCell>
        <mxCell id="lnr_KaeMSOWa1ANDZoDC-22" value="" style="endArrow=classic;html=1;rounded=0;entryX=0.5;entryY=0;entryDx=0;entryDy=0;" edge="1" parent="1" target="lnr_KaeMSOWa1ANDZoDC-9">
          <mxGeometry width="50" height="50" relative="1" as="geometry">
            <mxPoint x="257.5" y="644.5" as="sourcePoint" />
            <mxPoint x="480" y="210" as="targetPoint" />
            <Array as="points">
              <mxPoint x="740" y="640" />
              <mxPoint x="740" y="160" />
              <mxPoint x="480" y="160" />
            </Array>
          </mxGeometry>
        </mxCell>
        <mxCell id="lnr_KaeMSOWa1ANDZoDC-24" value="" style="endArrow=classic;html=1;rounded=0;" edge="1" parent="1">
          <mxGeometry width="50" height="50" relative="1" as="geometry">
            <mxPoint x="179.5" y="710" as="sourcePoint" />
            <mxPoint x="179.5" y="790" as="targetPoint" />
          </mxGeometry>
        </mxCell>
        <mxCell id="lnr_KaeMSOWa1ANDZoDC-25" value="Stored in csv file with Registration Number &amp;amp; Date, Time of Entry" style="shape=parallelogram;perimeter=parallelogramPerimeter;whiteSpace=wrap;html=1;fixedSize=1;fillColor=light-dark(#fa6800, #cc7333);fontColor=#000000;strokeColor=light-dark(#C73500,#D7765D);" vertex="1" parent="1">
          <mxGeometry x="60" y="790" width="210" height="90" as="geometry" />
        </mxCell>
        <mxCell id="lnr_KaeMSOWa1ANDZoDC-26" value="" style="endArrow=classic;html=1;rounded=0;" edge="1" parent="1">
          <mxGeometry width="50" height="50" relative="1" as="geometry">
            <mxPoint x="174.5" y="880" as="sourcePoint" />
            <mxPoint x="174.5" y="970" as="targetPoint" />
          </mxGeometry>
        </mxCell>
        <mxCell id="lnr_KaeMSOWa1ANDZoDC-27" value="End" style="ellipse;whiteSpace=wrap;html=1;fillColor=light-dark(#76608A,#B9E0A5);fontColor=#ffffff;strokeColor=#432D57;" vertex="1" parent="1">
          <mxGeometry x="80" y="970" width="190" height="80" as="geometry" />
        </mxCell>
        <mxCell id="lnr_KaeMSOWa1ANDZoDC-28" value="" style="endArrow=classic;html=1;rounded=0;entryX=1;entryY=0.5;entryDx=0;entryDy=0;exitX=0;exitY=0.5;exitDx=0;exitDy=0;" edge="1" parent="1" source="lnr_KaeMSOWa1ANDZoDC-12" target="lnr_KaeMSOWa1ANDZoDC-11">
          <mxGeometry width="50" height="50" relative="1" as="geometry">
            <mxPoint x="370" y="460" as="sourcePoint" />
            <mxPoint x="310" y="460" as="targetPoint" />
          </mxGeometry>
        </mxCell>
        <mxCell id="lnr_KaeMSOWa1ANDZoDC-29" value="No" style="text;html=1;align=center;verticalAlign=middle;resizable=0;points=[];autosize=1;strokeColor=none;fillColor=none;" vertex="1" parent="1">
          <mxGeometry x="390" y="618" width="40" height="30" as="geometry" />
        </mxCell>
        <mxCell id="lnr_KaeMSOWa1ANDZoDC-30" value="Yes" style="text;html=1;align=center;verticalAlign=middle;resizable=0;points=[];autosize=1;strokeColor=none;fillColor=none;" vertex="1" parent="1">
          <mxGeometry x="130" y="720" width="40" height="30" as="geometry" />
        </mxCell>
        <mxCell id="lnr_KaeMSOWa1ANDZoDC-31" value="Yes" style="text;html=1;align=center;verticalAlign=middle;resizable=0;points=[];autosize=1;strokeColor=none;fillColor=none;" vertex="1" parent="1">
          <mxGeometry x="300" y="248" width="40" height="30" as="geometry" />
        </mxCell>
        <mxCell id="lnr_KaeMSOWa1ANDZoDC-32" value="No" style="text;html=1;align=center;verticalAlign=middle;resizable=0;points=[];autosize=1;strokeColor=none;fillColor=none;" vertex="1" parent="1">
          <mxGeometry x="140" y="330" width="40" height="30" as="geometry" />
        </mxCell>
      </root>
    </mxGraphModel>
  </diagram>
</mxfile>
